#!OML:ASF E:\I on waltz\AllaLogoMonkeySwing\Project 1\Capture day 1\Session 1\Subject1.ASF
:FULLY-SPECIFIED
:DEGREES
638
root -0.28803 17.9093 -3.44933 181.928 175.483 179.101
lowerback 5.02245 -1.32185 -2.89128
upperback -0.216588 -1.85685 2.61112
thorax -2.86229 -0.86472 4.46381
lowerneck -7.5063 -9.01662 -8.50031
upperneck 13.4139 -11.754 4.25779
head 6.05405 -5.85602 1.76182
rclavicle -4.37326e-015 5.96354e-015
rhumerus -31.2179 -27.8768 -68.244
rradius 23.8782
rwrist 13.5542
rhand -15.9418 -47.7761
rfingers 7.12502
rthumb 10.2563 -77.5061
lclavicle -4.37326e-015 5.96354e-015
lhumerus -41.7509 23.482 76.6141
lradius 41.5953
lwrist -1.63742
lhand -15.4847 -5.07699
lfingers 7.12502
lthumb 10.6973 24.6307
rfemur -0.351437 0.291839 17.3612
rtibia 16.1959
rfoot -14.6679 -10.5575
rtoes 9.82983
lfemur 2.65331 -1.85675 -14.1691
ltibia 10.2597
lfoot -13.9196 2.00391
ltoes -32.9971
639
root -0.292108 17.9103 -3.44818 181.907 175.508 179.077
lowerback 5.07533 -1.33775 -2.88411
upperback -0.209048 -1.87954 2.5807
thorax -2.88319 -0.875984 4.43117
lowerneck -7.55299 -8.99324 -8.55049
upperneck 13.4934 -11.7172 4.27409
head 6.08886 -5.83876 1.77415
rclavicle 2.83268e-015 -3.10104e-014
rhumerus -31.1748 -27.6275 -68.4732
rradius 23.8675
rwrist 13.3355
rhand -16.1264 -47.7947
rfingers 7.12502
rthumb 10.0782 -77.5333
lclavicle 2.83268e-015 -3.10104e-014
lhumerus -41.6842 23.5665 76.4737
lradius 41.4799
lwrist -1.79222
lhand -15.5602 -5.23853
lfingers 7.12502
lthumb 10.6244 24.4729
rfemur -0.328181 0.228386 17.3987
rtibia 16.2013
rfoot -14.6323 -10.4727
rtoes 9.85929
lfemur 2.69653 -1.78993 -14.1181
ltibia 10.2431
lfoot -13.9638 1.99341
ltoes -32.92
640
root -0.296261 17.9111 -3.44793 181.908 175.523 179.002
lowerback 5.12659 -1.3558 -2.80197
upperback -0.225132 -1.90058 2.54344
thorax -2.9304 -0.886601 4.34933
lowerneck -7.55082 -9.00013 -8.62104
upperneck 13.5397 -11.7293 4.33861
head 6.11224 -5.84375 1.80256
rclavicle 1.66482e-015 3.97569e-016
rhumerus -31.2184 -27.3521 -68.7111
rradius 23.9211
rwrist 13.2306
rhand -16.1489 -47.7284
rfingers 7.12502
rthumb 10.0565 -77.4681
lclavicle 1.66482e-015 3.97569e-016
lhumerus -41.6078 23.6327 76.294
lradius 41.3101
lwrist -1.9021
lhand -15.6318 -5.39957
lfingers 7.12502
lthumb 10.5554 24.3154
rfemur -0.334976 0.136524 17.4894
rtibia 16.1994
rfoot -14.6053 -10.4207
rtoes 9.63568
lfemur 2.70403 -1.80002 -14.0232
ltibia 10.2319
lfoot -13.9367 2.07521
ltoes -33.1251
641
root -0.300578 17.9116 -3.4475 181.917 175.538 178.942
lowerback 5.13988 -1.34549 -2.74611
upperback -0.232066 -1.88512 2.49203
thorax -2.94994 -0.879515 4.26359
lowerneck -7.53482 -9.01788 -8.60097
upperneck 13.5671 -11.7577 4.3324
head 6.11848 -5.8573 1.79505
rclavicle 1.717e-014 1.98785e-015
rhumerus -31.2894 -27.251 -68.8843
rradius 23.9404
rwrist 13.2751
rhand -16.0878 -47.6942
rfingers 7.12502
rthumb 10.1154 -77.431
lclavicle 1.717e-014 1.98785e-015
lhumerus -41.4704 23.6511 76.154
lradius 41.1762
lwrist -1.88797
lhand -15.6 -5.17278
lfingers 7.12502
lthumb 10.5861 24.5406
rfemur -0.328981 0.13846 17.5664
rtibia 16.1579
rfoot -14.5764 -10.3807
rtoes 9.86554
lfemur 2.71999 -1.95308 -13.9685
ltibia 10.172
lfoot -13.8706 2.21179
ltoes -33.1175
642
root -0.304759 17.9124 -3.44666 181.918 175.548 178.857
lowerback 5.14748 -1.33034 -2.67792
upperback -0.233544 -1.86182 2.45897
thorax -2.96107 -0.868868 4.18916
lowerneck -7.45513 -9.0238 -8.64762
upperneck 13.5514 -11.7769 4.40517
head 6.10851 -5.86537 1.82664
rclavicle 1.77664e-014 -3.06128e-014
rhumerus -31.3428 -27.1946 -69.0338
rradius 23.9714
rwrist 13.209
rhand -16.0804 -47.6773
rfingers 7.12502
rthumb 10.1226 -77.4138
lclavicle 1.77664e-014 -3.06128e-014
lhumerus -41.3681 23.7777 76.0115
lradius 41.056
lwrist -1.94155
lhand -15.5827 -5.0294
lfingers 7.12502
lthumb 10.6027 24.6831
rfemur -0.316347 0.1438 17.6841
rtibia 16.1185
rfoot -14.6054 -10.366
rtoes 9.71176
lfemur 2.73984 -2.0477 -13.8697
ltibia 10.1319
lfoot -13.8776 2.2719
ltoes -32.847
643
root -0.30927 17.9128 -3.44601 181.937 175.585 178.738
lowerback 5.15391 -1.3074 -2.59135
upperback -0.250701 -1.82631 2.44454
thorax -2.98876 -0.851718 4.1232
lowerneck -7.40533 -9.03906 -8.73824
upperneck 13.6053 -11.805 4.48711
head 6.1297 -5.87872 1.86395
rclavicle 1.01629e-014 -7.15625e-015
rhumerus -31.4149 -27.0688 -69.1939
rradius 24.088
rwrist 13.0419
rhand -16.0459 -47.7082
rfingers 7.12502
rthumb 10.1559 -77.4431
lclavicle 1.01629e-014 -7.15625e-015
lhumerus -41.3003 23.9602 75.844
lradius 40.8874
lwrist -2.1532
lhand -15.6284 -4.98982
lfingers 7.12502
lthumb 10.5586 24.725
rfemur -0.33369 0.160815 17.8556
rtibia 16.092
rfoot -14.6409 -10.3817
rtoes 9.37924
lfemur 2.73436 -2.02016 -13.7078
ltibia 10.1228
lfoot -13.8996 2.28375
ltoes -32.7014
644
root -0.313705 17.9121 -3.44478 181.986 175.678 178.679
lowerback 5.12896 -1.25907 -2.57181
upperback -0.272155 -1.76118 2.40988
thorax -3.0044 -0.819119 4.07106
lowerneck -7.41387 -9.04675 -8.75504
upperneck 13.6373 -11.8186 4.51748
head 6.1451 -5.88391 1.87348
rclavicle 1.46604e-014 8.74653e-015
rhumerus -31.4923 -27.0138 -69.3257
rradius 24.2106
rwrist 12.9955
rhand -15.8803 -47.8504
rfingers 7.12502
rthumb 10.3156 -77.5774
lclavicle 1.46604e-014 8.74653e-015
lhumerus -41.174 24.1194 75.6797
lradius 40.585
lwrist -2.45769
lhand -15.6987 -5.14732
lfingers 7.12502
lthumb 10.4908 24.5709
rfemur -0.392714 0.225874 17.955
rtibia 16.0891
rfoot -14.588 -10.339
rtoes 9.59547
lfemur 2.7105 -1.93149 -13.6121
ltibia 10.1283
lfoot -13.8815 2.33094
ltoes -33.0106
645
root -0.317029 17.9114 -3.44301 182.015 175.759 178.677
lowerback 5.12902 -1.22898 -2.59211
upperback -0.283455 -1.72392 2.35454
thorax -3.02051 -0.800096 4.02249
lowerneck -7.43583 -9.02265 -8.7938
upperneck 13.5908 -11.7991 4.66086
head 6.14378 -5.86614 1.92551
rclavicle -1.74931e-014 -4.37326e-015
rhumerus -31.5319 -26.8183 -69.5207
rradius 24.3185
rwrist 12.8396
rhand -15.7458 -47.9653
rfingers 7.12502
rthumb 10.4453 -77.6858
lclavicle -1.74931e-014 -4.37326e-015
lhumerus -41.0471 24.352 75.4763
lradius 40.2362
lwrist -2.75385
lhand -15.6997 -5.56392
lfingers 7.12502
lthumb 10.4899 24.1543
rfemur -0.4294 0.281005 17.9723
rtibia 16.088
rfoot -14.5425 -10.2607
rtoes 9.82206
lfemur 2.70925 -1.86577 -13.5953
ltibia 10.1415
lfoot -13.8635 2.38561
ltoes -33.4746
646
root -0.320204 17.912 -3.44146 181.986 175.8 178.685
lowerback 5.18468 -1.23609 -2.62492
upperback -0.26611 -1.73796 2.30526
thorax -3.03314 -0.806917 3.99213
lowerneck -7.53478 -8.99137 -8.83109
upperneck 13.6245 -11.7596 4.75799
head 6.17667 -5.84029 1.95993
rclavicle -8.02593e-015 1.98785e-014
rhumerus -31.5139 -26.4182 -69.8105
rradius 24.4077
rwrist 12.5308
rhand -15.8829 -47.8822
rfingers 7.12502
rthumb 10.3132 -77.6094
lclavicle -8.02593e-015 1.98785e-014
lhumerus -40.9544 24.6937 75.2361
lradius 39.9724
lwrist -3.11663
lhand -15.6652 -5.75436
lfingers 7.12502
lthumb 10.5231 23.9622
rfemur -0.395091 0.301664 17.9671
rtibia 16.0697
rfoot -14.5399 -10.2201
rtoes 9.95326
lfemur 2.7642 -1.90684 -13.6061
ltibia 10.1293
lfoot -13.8568 2.45774
ltoes -33.5777
647
root -0.323895 17.9128 -3.44083 181.969 175.829 178.757
lowerback 5.22801 -1.26218 -2.73463
upperback -0.249078 -1.78238 2.24295
thorax -3.03467 -0.828006 3.99354
lowerneck -7.57726 -8.96953 -8.79771
upperneck 13.6323 -11.723 4.70769
head 6.17874 -5.82369 1.9409
rclavicle -1.04859e-014 -1.43125e-014
rhumerus -31.4412 -26.1032 -70.0831
rradius 24.4217
rwrist 12.3571
rhand -16.1114 -47.6972
rfingers 7.12502
rthumb 10.0927 -77.4352
lclavicle -1.04859e-014 -1.43125e-014
lhumerus -40.8836 24.9506 75.0436
lradius 39.8002
lwrist -3.31945
lhand -15.736 -5.73877
lfingers 7.12502
lthumb 10.4549 23.9813
rfemur -0.37833 0.295186 17.8863
rtibia 16.0737
rfoot -14.5386 -10.2024
rtoes 10.0269
lfemur 2.80032 -1.98396 -13.6989
ltibia 10.1282
lfoot -13.8559 2.54806
ltoes -33.5935
648
root -0.327212 17.913 -3.44011 182.002 175.846 178.868
lowerback 5.22624 -1.27426 -2.87576
upperback -0.26043 -1.80991 2.15824
thorax -3.04143 -0.839799 3.98735
lowerneck -7.53482 -8.95507 -8.77916
upperneck 13.5898 -11.7064 4.70043
head 6.15528 -5.81618 1.9403
rclavicle -4.82053e-015 -2.98177e-015
rhumerus -31.399 -25.9657 -70.2678
rradius 24.3952
rwrist 12.3288
rhand -16.1902 -47.7071
rfingers 7.12502
rthumb 10.0167 -77.4487
lclavicle -4.82053e-015 -2.98177e-015
lhumerus -40.8218 25.0433 74.9424
lradius 39.663
lwrist -3.28296
lhand -15.8332 -5.73623
lfingers 7.12502
lthumb 10.361 23.9885
rfemur -0.42483 0.224422 17.7473
rtibia 16.1091
rfoot -14.5607 -10.1346
rtoes 9.88734
lfemur 2.78223 -2.01095 -13.8361
ltibia 10.1301
lfoot -13.8514 2.58885
ltoes -33.366
649
root -0.330062 17.9134 -3.43781 182.02 175.901 178.888
lowerback 5.21419 -1.25231 -2.9201
upperback -0.270256 -1.78518 2.09269
thorax -3.04776 -0.826937 3.94223
lowerneck -7.53592 -8.94262 -8.83449
upperneck 13.6221 -11.7045 4.83458
head 6.17699 -5.80873 1.98975
rclavicle -1.65612e-014 -3.18055e-015
rhumerus -31.4474 -25.9406 -70.3833
rradius 24.4099
rwrist 12.3382
rhand -16.2906 -47.8158
rfingers 7.12502
rthumb 9.91979 -77.5621
lclavicle -1.65612e-014 -3.18055e-015
lhumerus -40.7701 25.0836 74.8579
lradius 39.5499
lwrist -3.19501
lhand -15.7886 -5.63468
lfingers 7.12502
lthumb 10.4041 24.0879
rfemur -0.457436 0.161389 17.7169
rtibia 16.1397
rfoot -14.5876 -10.0307
rtoes 9.78839
lfemur 2.7924 -1.95484 -13.8543
ltibia 10.1212
lfoot -13.8664 2.63192
ltoes -33.2345
650
root -0.332108 17.914 -3.43558 182.012 175.983 178.857
lowerback 5.20855 -1.23889 -2.90857
upperback -0.266919 -1.76787 2.04639
thorax -3.04443 -0.81894 3.88602
lowerneck -7.56128 -8.90764 -8.855
upperneck 13.6607 -11.6715 4.94774
head 6.19921 -5.78551 2.02947
rclavicle -4.70871e-015 3.16068e-014
rhumerus -31.5193 -25.9496 -70.4893
rradius 24.467
rwrist 12.3585
rhand -16.5006 -47.734
rfingers 7.12502
rthumb 9.71724 -77.4898
lclavicle -4.70871e-015 3.16068e-014
lhumerus -40.7595 25.1234 74.7416
lradius 39.4747
lwrist -3.1127
lhand -15.69 -5.5222
lfingers 7.12502
lthumb 10.4992 24.1956
rfemur -0.452037 0.174582 17.7622
rtibia 16.1397
rfoot -14.6376 -10.0176
rtoes 9.4655
lfemur 2.84067 -1.92966 -13.8173
ltibia 10.0812
lfoot -13.8537 2.6919
ltoes -33.5141
651
root -0.333336 17.9143 -3.43435 182.027 176.022 178.833
lowerback 5.1858 -1.25671 -2.89759
upperback -0.263765 -1.79141 2.01567
thorax -3.02758 -0.83149 3.84876
lowerneck -7.57687 -8.86526 -8.85201
upperneck 13.6407 -11.6171 4.98173
head 6.19347 -5.75652 2.04473
rclavicle -1.73688e-014 4.17448e-015
rhumerus -31.5458 -26.0213 -70.5534
rradius 24.4987
rwrist 12.491
rhand -16.5452 -47.7024
rfingers 7.12502
rthumb 9.67419 -77.4602
lclavicle -1.73688e-014 4.17448e-015
lhumerus -40.7713 25.2064 74.6418
lradius 39.3463
lwrist -3.2654
lhand -15.6287 -5.60026
lfingers 7.12502
lthumb 10.5584 24.1145
rfemur -0.470306 0.176346 17.7979
rtibia 16.1431
rfoot -14.6835 -10.0447
rtoes 9.17915
lfemur 2.85256 -1.95176 -13.7954
ltibia 10.0321
lfoot -13.8176 2.7246
ltoes -33.9704
